<?xml version="1.0" encoding="iso-8859-1"?>
<!-- Generator: Adobe Illustrator 18.1.1, SVG Export Plug-In . SVG Version: 6.00 Build 0)  -->
<svg version="1.1" id="Capa_1" xmlns="http://www.w3.org/2000/svg" xmlns:xlink="http://www.w3.org/1999/xlink" x="0px" y="0px"
	 viewBox="0 0 612 612" style="enable-background:new 0 0 612 612;" xml:space="preserve">
<g>
	<path d="M562.369,4.943c-7.707-5.271-17.513-6.405-26.214-3.024c-48,18.643-95.472,28.094-141.095,28.094
		c-47.749,0-76.765-10.707-78.479-11.358c-6.967-2.913-14.191-2.913-21.158-0.003c-1.697,0.646-30.73,11.36-78.487,11.362
		c-45.618,0.003-93.089-9.449-141.092-28.094c-8.699-3.377-18.507-2.247-26.212,3.024c-7.703,5.271-12.309,14.004-12.309,23.339
		c0,108.164,13.054,205.708,38.796,289.923c20.883,68.315,50.141,128.151,86.958,177.846
		c64.221,86.684,129.9,112.948,132.667,114.022C299.043,611.359,302.52,612,306,612c3.478,0,6.957-0.641,10.255-1.926
		c2.765-1.075,68.446-27.339,132.667-114.022c36.818-49.695,66.075-109.532,86.958-177.846
		c25.744-84.215,38.796-181.759,38.796-289.923C574.678,18.947,570.071,10.213,562.369,4.943z M480.21,306.001H306v246.19
		c-0.029,0.017-0.061,0.037-0.089,0.05c-30.667-16.857-122.118-79.402-174.348-246.24H306V74.69
		c15.301,4.588,46.358,11.886,89.06,11.886c40.043,0,81.068-6.212,122.417-18.507C514.334,165.259,499.78,243.516,480.21,306.001z"
		/>
</g>
<g>
</g>
<g>
</g>
<g>
</g>
<g>
</g>
<g>
</g>
<g>
</g>
<g>
</g>
<g>
</g>
<g>
</g>
<g>
</g>
<g>
</g>
<g>
</g>
<g>
</g>
<g>
</g>
<g>
</g>
</svg>
